<svg xmlns="http://www.w3.org/2000/svg" version="1.1" xmlns:xlink="http://www.w3.org/1999/xlink" xmlns:svgjs="http://svgjs.dev/svgjs" width="1500" height="200" viewBox="0 0 1500 200"><g transform="matrix(1,0,0,1,-0.9090909090909918,0.8553649765552649)"><svg viewBox="0 0 396 53" data-background-color="#ffffff" preserveAspectRatio="xMidYMid meet" height="200" width="1500" xmlns="http://www.w3.org/2000/svg" xmlns:xlink="http://www.w3.org/1999/xlink"><g id="tight-bounds" transform="matrix(1,0,0,1,0.2400000000000091,-0.22667171878714498)"><svg viewBox="0 0 395.52 53.45334343757426" height="53.45334343757426" width="395.52"><g><svg viewBox="0 0 458.5441809370883 61.97087273698265" height="53.45334343757426" width="395.52"><g transform="matrix(1,0,0,1,63.024180937088325,8.564715407209619)"><svg viewBox="0 0 395.52 44.84144192256341" height="44.84144192256341" width="395.52"><g id="textblocktransform"><svg viewBox="0 0 395.52 44.84144192256341" height="44.84144192256341" width="395.52" id="textblock"><g><svg viewBox="0 0 395.52 44.84144192256341" height="44.84144192256341" width="395.52"><g transform="matrix(1,0,0,1,0,0)"><svg width="395.52" viewBox="2.15 -38.05 446.12 50.949999999999996" height="44.84144192256341" data-palette-color="#6b7280"><g class="wordmark-text-0" data-fill-palette-color="primary" id="text-0"><path d="M2.15-17.45Q2.15-22.55 4.45-26.63 6.75-30.7 10.73-33 14.7-35.3 19.55-35.3L19.55-35.3Q25.25-35.3 29.5-32.55 33.75-29.8 35.7-24.75L35.7-24.75 30.25-24.75Q28.8-27.9 26.08-29.6 23.35-31.3 19.55-31.3L19.55-31.3Q15.9-31.3 13-29.6 10.1-27.9 8.45-24.78 6.8-21.65 6.8-17.45L6.8-17.45Q6.8-13.3 8.45-10.18 10.1-7.05 13-5.35 15.9-3.65 19.55-3.65L19.55-3.65Q23.35-3.65 26.08-5.33 28.8-7 30.25-10.15L30.25-10.15 35.7-10.15Q33.75-5.15 29.5-2.43 25.25 0.3 19.55 0.3L19.55 0.3Q14.7 0.3 10.73-1.98 6.75-4.25 4.45-8.3 2.15-12.35 2.15-17.45L2.15-17.45ZM47-22.95Q48.2-25.3 50.42-26.6 52.65-27.9 55.85-27.9L55.85-27.9 55.85-23.2 54.65-23.2Q47-23.2 47-14.9L47-14.9 47 0 42.45 0 42.45-27.4 47-27.4 47-22.95ZM59.4-13.8Q59.4-18 61.1-21.18 62.8-24.35 65.77-26.1 68.75-27.85 72.4-27.85L72.4-27.85Q76-27.85 78.65-26.3 81.3-24.75 82.59-22.4L82.59-22.4 82.59-27.4 87.2-27.4 87.2 0 82.59 0 82.59-5.1Q81.25-2.7 78.57-1.13 75.9 0.45 72.34 0.45L72.34 0.45Q68.7 0.45 65.75-1.35 62.8-3.15 61.1-6.4 59.4-9.65 59.4-13.8L59.4-13.8ZM82.59-13.75Q82.59-16.85 81.34-19.15 80.09-21.45 77.97-22.68 75.84-23.9 73.3-23.9L73.3-23.9Q70.75-23.9 68.65-22.7 66.55-21.5 65.3-19.2 64.05-16.9 64.05-13.8L64.05-13.8Q64.05-10.65 65.3-8.33 66.55-6 68.65-4.78 70.75-3.55 73.3-3.55L73.3-3.55Q75.84-3.55 77.97-4.78 80.09-6 81.34-8.33 82.59-10.65 82.59-13.75L82.59-13.75ZM111.64-23.7L98.29-3.75 111.74-3.75 111.74 0 93.09 0 93.09-3.75 106.39-23.7 93.19-23.7 93.19-27.4 111.64-27.4 111.64-23.7ZM136.54-27.4L141.24-27.4 124.74 12.9 120.04 12.9 125.44-0.3 114.39-27.4 119.44-27.4 128.04-5.2 136.54-27.4Z" fill="#6b7280" data-fill-palette-color="primary"></path><path d="M158.44-34.85L178.14-34.85 178.14-31.15 162.99-31.15 162.99-19.4 175.29-19.4 175.29-15.7 162.99-15.7 162.99 0 158.44 0 158.44-34.85ZM183.64-37L188.19-37 188.19 0 183.64 0 183.64-37ZM198.28-31.85Q196.98-31.85 196.08-32.75 195.18-33.65 195.18-34.95L195.18-34.95Q195.18-36.25 196.08-37.15 196.98-38.05 198.28-38.05L198.28-38.05Q199.53-38.05 200.41-37.15 201.28-36.25 201.28-34.95L201.28-34.95Q201.28-33.65 200.41-32.75 199.53-31.85 198.28-31.85L198.28-31.85ZM195.93-27.4L200.48-27.4 200.48 0 195.93 0 195.93-27.4ZM241.18-27.9Q244.38-27.9 246.88-26.58 249.38-25.25 250.83-22.6 252.28-19.95 252.28-16.15L252.28-16.15 252.28 0 247.78 0 247.78-15.5Q247.78-19.6 245.76-21.78 243.73-23.95 240.28-23.95L240.28-23.95Q236.73-23.95 234.63-21.68 232.53-19.4 232.53-15.1L232.53-15.1 232.53 0 228.03 0 228.03-15.5Q228.03-19.6 226.01-21.78 223.98-23.95 220.53-23.95L220.53-23.95Q216.98-23.95 214.88-21.68 212.78-19.4 212.78-15.1L212.78-15.1 212.78 0 208.23 0 208.23-27.4 212.78-27.4 212.78-23.45Q214.13-25.6 216.41-26.75 218.68-27.9 221.43-27.9L221.43-27.9Q224.88-27.9 227.53-26.35 230.18-24.8 231.48-21.8L231.48-21.8Q232.63-24.7 235.28-26.3 237.93-27.9 241.18-27.9L241.18-27.9ZM269.43 0.45Q266.28 0.45 263.78-0.63 261.28-1.7 259.83-3.63 258.38-5.55 258.23-8.05L258.23-8.05 262.93-8.05Q263.13-6 264.85-4.7 266.58-3.4 269.38-3.4L269.38-3.4Q271.98-3.4 273.48-4.55 274.98-5.7 274.98-7.45L274.98-7.45Q274.98-9.25 273.38-10.13 271.78-11 268.43-11.85L268.43-11.85Q265.38-12.65 263.45-13.48 261.53-14.3 260.15-15.93 258.78-17.55 258.78-20.2L258.78-20.2Q258.78-22.3 260.03-24.05 261.28-25.8 263.58-26.83 265.88-27.85 268.83-27.85L268.83-27.85Q273.38-27.85 276.18-25.55 278.98-23.25 279.18-19.25L279.18-19.25 274.63-19.25Q274.48-21.4 272.9-22.7 271.33-24 268.68-24L268.68-24Q266.23-24 264.78-22.95 263.33-21.9 263.33-20.2L263.33-20.2Q263.33-18.85 264.2-17.98 265.08-17.1 266.4-16.57 267.73-16.05 270.08-15.4L270.08-15.4Q273.03-14.6 274.88-13.83 276.73-13.05 278.05-11.5 279.38-9.95 279.43-7.45L279.43-7.45Q279.43-5.2 278.18-3.4 276.93-1.6 274.65-0.58 272.38 0.45 269.43 0.45L269.43 0.45Z" fill="#6b7280" data-fill-palette-color="primary"></path><path d="M307.68 0.35Q304.23 0.35 301.5-0.88 298.78-2.1 297.23-4.28 295.68-6.45 295.63-9.3L295.63-9.3 300.48-9.3Q300.73-6.85 302.5-5.18 304.28-3.5 307.68-3.5L307.68-3.5Q310.93-3.5 312.8-5.13 314.68-6.75 314.68-9.3L314.68-9.3Q314.68-11.3 313.58-12.55 312.48-13.8 310.83-14.45 309.18-15.1 306.38-15.85L306.38-15.85Q302.93-16.75 300.85-17.65 298.78-18.55 297.3-20.48 295.83-22.4 295.83-25.65L295.83-25.65Q295.83-28.5 297.28-30.7 298.73-32.9 301.35-34.1 303.98-35.3 307.38-35.3L307.38-35.3Q312.28-35.3 315.4-32.85 318.53-30.4 318.93-26.35L318.93-26.35 313.93-26.35Q313.68-28.35 311.83-29.88 309.98-31.4 306.93-31.4L306.93-31.4Q304.08-31.4 302.28-29.93 300.48-28.45 300.48-25.8L300.48-25.8Q300.48-23.9 301.55-22.7 302.63-21.5 304.2-20.88 305.78-20.25 308.63-19.45L308.63-19.45Q312.08-18.5 314.18-17.57 316.28-16.65 317.78-14.73 319.28-12.8 319.28-9.5L319.28-9.5Q319.28-6.95 317.93-4.7 316.58-2.45 313.93-1.05 311.28 0.35 307.68 0.35L307.68 0.35ZM338.68-23.65L331.53-23.65 331.53-7.5Q331.53-5.5 332.38-4.67 333.23-3.85 335.33-3.85L335.33-3.85 338.68-3.85 338.68 0 334.58 0Q330.78 0 328.88-1.75 326.98-3.5 326.98-7.5L326.98-7.5 326.98-23.65 323.43-23.65 323.43-27.4 326.98-27.4 326.98-34.3 331.53-34.3 331.53-27.4 338.68-27.4 338.68-23.65ZM363.92-27.4L368.47-27.4 368.47 0 363.92 0 363.92-4.05Q362.62-1.95 360.3-0.78 357.97 0.4 355.17 0.4L355.17 0.4Q351.97 0.4 349.42-0.93 346.87-2.25 345.4-4.9 343.92-7.55 343.92-11.35L343.92-11.35 343.92-27.4 348.42-27.4 348.42-11.95Q348.42-7.9 350.47-5.73 352.52-3.55 356.07-3.55L356.07-3.55Q359.72-3.55 361.82-5.8 363.92-8.05 363.92-12.35L363.92-12.35 363.92-27.4ZM374.47-13.8Q374.47-18 376.17-21.18 377.87-24.35 380.85-26.1 383.82-27.85 387.52-27.85L387.52-27.85Q390.72-27.85 393.47-26.38 396.22-24.9 397.67-22.5L397.67-22.5 397.67-37 402.27-37 402.27 0 397.67 0 397.67-5.15Q396.32-2.7 393.67-1.13 391.02 0.45 387.47 0.45L387.47 0.45Q383.82 0.45 380.85-1.35 377.87-3.15 376.17-6.4 374.47-9.65 374.47-13.8L374.47-13.8ZM397.67-13.75Q397.67-16.85 396.42-19.15 395.17-21.45 393.05-22.68 390.92-23.9 388.37-23.9L388.37-23.9Q385.82-23.9 383.72-22.7 381.62-21.5 380.37-19.2 379.12-16.9 379.12-13.8L379.12-13.8Q379.12-10.65 380.37-8.33 381.62-6 383.72-4.78 385.82-3.55 388.37-3.55L388.37-3.55Q390.92-3.55 393.05-4.78 395.17-6 396.42-8.33 397.67-10.65 397.67-13.75L397.67-13.75ZM412.32-31.85Q411.02-31.85 410.12-32.75 409.22-33.65 409.22-34.95L409.22-34.95Q409.22-36.25 410.12-37.15 411.02-38.05 412.32-38.05L412.32-38.05Q413.57-38.05 414.44-37.15 415.32-36.25 415.32-34.95L415.32-34.95Q415.32-33.65 414.44-32.75 413.57-31.85 412.32-31.85L412.32-31.85ZM409.97-27.4L414.52-27.4 414.52 0 409.97 0 409.97-27.4ZM434.22 0.45Q430.37 0.45 427.24-1.3 424.12-3.05 422.34-6.28 420.57-9.5 420.57-13.75L420.57-13.75Q420.57-17.95 422.39-21.18 424.22-24.4 427.37-26.13 430.52-27.85 434.42-27.85L434.42-27.85Q438.32-27.85 441.47-26.13 444.62-24.4 446.44-21.2 448.27-18 448.27-13.75L448.27-13.75Q448.27-9.5 446.39-6.28 444.52-3.05 441.32-1.3 438.12 0.45 434.22 0.45L434.22 0.45ZM434.22-3.55Q436.67-3.55 438.82-4.7 440.97-5.85 442.29-8.15 443.62-10.45 443.62-13.75L443.62-13.75Q443.62-17.05 442.32-19.35 441.02-21.65 438.92-22.78 436.82-23.9 434.37-23.9L434.37-23.9Q431.87-23.9 429.79-22.78 427.72-21.65 426.47-19.35 425.22-17.05 425.22-13.75L425.22-13.75Q425.22-10.4 426.44-8.1 427.67-5.8 429.72-4.67 431.77-3.55 434.22-3.55L434.22-3.55Z" fill="#6b7280" data-fill-palette-color="primary"></path></g></svg></g></svg></g></svg></g></svg></g><g><svg viewBox="0 0 52.438192693777246 61.97087273698265" height="61.97087273698265" width="52.438192693777246"><g><svg xmlns="http://www.w3.org/2000/svg" xmlns:xlink="http://www.w3.org/1999/xlink" version="1.1" x="0" y="0" viewBox="18.981 13.341 62.038999999999994 73.317" enable-background="new 0 0 100 100" xml:space="preserve" height="61.97087273698265" width="52.438192693777246" class="icon-icon-0" data-fill-palette-color="accent" id="icon-0"><path fill="#6b7280" d="M18.981 13.341v73.317H81.02V13.341H18.981zM27.441 81.02h-5.64v-5.641h5.64V81.02zM27.441 66.92h-5.64v-5.641h5.64V66.92zM27.441 52.82h-5.64v-5.64h5.64V52.82zM27.441 38.721h-5.64v-5.64h5.64V38.721zM27.441 24.621h-5.64v-5.64h5.64V24.621zM69.74 81.02H30.261V52.82H69.74V81.02zM69.74 47.18H30.261V18.981H69.74V47.18zM78.199 81.02h-5.641v-5.641h5.641V81.02zM78.199 66.92h-5.641v-5.641h5.641V66.92zM78.199 52.82h-5.641v-5.64h5.641V52.82zM78.199 38.721h-5.641v-5.64h5.641V38.721zM78.199 24.621h-5.641v-5.64h5.641V24.621z" data-fill-palette-color="accent"></path></svg></g></svg></g></svg></g><defs></defs></svg><rect width="395.52" height="53.45334343757426" fill="none" stroke="none" visibility="hidden"></rect></g></svg></g></svg>